<svg width="23" height="23" viewBox="0 0 23 23" fill="none" xmlns="http://www.w3.org/2000/svg">
<path d="M3.78826 7.43489C3.32464 6.97597 3.33953 6.22784 3.78826 5.77324L4.25462 5.30296L5.65761 3.89996C5.68661 3.87292 5.71757 3.83922 5.75167 3.82158C5.97678 3.63745 6.26226 3.54352 6.55272 3.558C6.84318 3.57248 7.1179 3.69435 7.32357 3.89996L9.17725 5.75364C9.32147 5.89943 9.80037 6.38068 9.93793 6.51784C10.1428 6.72365 10.2645 6.99785 10.2797 7.28786C10.2949 7.57786 10.2025 7.86327 10.0202 8.08936C9.97516 8.14344 9.53231 8.5902 9.47157 8.64977L8.53885 9.58288L8.06857 10.0532C7.63357 10.5085 6.84115 10.5089 6.40653 10.0532L3.78826 7.43489ZM3.15338 5.29865C2.91943 5.02273 2.79765 4.669 2.81216 4.30754C2.82668 3.94608 2.97643 3.60326 3.23176 3.34699C3.75299 2.82577 4.63084 2.79833 5.18733 3.26469C5.1599 3.29213 5.12855 3.31956 5.10504 3.34699L3.15338 5.29865ZM10.0241 9.20274C10.081 9.13337 10.5297 8.7066 10.5767 8.64624L21.6455 19.7107C22.2063 20.2527 22.2071 21.2152 21.6455 21.7568C21.1031 22.3176 20.1418 22.3184 19.5998 21.7568L8.53493 10.692C8.5702 10.6606 8.59764 10.6332 8.62115 10.6057L10.0241 9.20274ZM1.14686 13.2632C1.75944 11.5409 2.61029 9.91296 3.67461 8.42678L5.68896 10.4411C3.77337 12.7157 2.15012 15.2584 0.864302 17.9315C0.797678 18.0726 0.660515 18.1549 0.511593 18.1549C0.28586 18.158 0.0918694 17.9519 0.123613 17.7199C0.28858 16.1993 0.632284 14.7035 1.14686 13.2632ZM17.8163 0.976005C15.1294 2.26574 12.6145 3.88641 10.3298 5.80028C9.9391 5.40446 8.72696 4.19584 8.31547 3.78592C11.0582 1.82948 14.2558 0.607197 17.6042 0.235317C18.0314 0.180059 18.2121 0.793772 17.8163 0.976005Z" fill="white"/>
</svg>
