<svg width="16" height="16" viewBox="0 0 16 16" fill="none" xmlns="http://www.w3.org/2000/svg">
<path d="M7.69458 0.687622C6.21122 0.687622 4.76117 1.12749 3.52781 1.9516C2.29444 2.77571 1.33314 3.94705 0.765487 5.3175C0.19783 6.68794 0.0493047 8.19594 0.338694 9.6508C0.628083 11.1057 1.34239 12.442 2.39128 13.4909C3.44018 14.5398 4.77655 15.2541 6.2314 15.5435C7.68626 15.8329 9.19426 15.6844 10.5647 15.1167C11.9352 14.5491 13.1065 13.5878 13.9306 12.3544C14.7547 11.121 15.1946 9.67098 15.1946 8.18762C15.1925 6.19914 14.4016 4.29271 12.9956 2.88664C11.5895 1.48057 9.68306 0.689722 7.69458 0.687622ZM7.40612 4.14916C7.57728 4.14916 7.74459 4.19991 7.8869 4.295C8.02921 4.39009 8.14013 4.52525 8.20563 4.68338C8.27113 4.8415 8.28827 5.0155 8.25488 5.18337C8.22149 5.35124 8.13907 5.50544 8.01804 5.62646C7.89701 5.74749 7.74282 5.82991 7.57495 5.8633C7.40708 5.89669 7.23308 5.87955 7.07495 5.81406C6.91682 5.74856 6.78167 5.63764 6.68658 5.49533C6.59149 5.35301 6.54074 5.1857 6.54074 5.01454C6.54074 4.78503 6.63191 4.56492 6.7942 4.40262C6.95649 4.24033 7.17661 4.14916 7.40612 4.14916ZM8.2715 12.2261C7.96549 12.2261 7.672 12.1045 7.45561 11.8881C7.23922 11.6717 7.11766 11.3783 7.11766 11.0722V8.18762C6.96465 8.18762 6.81791 8.12684 6.70971 8.01864C6.60152 7.91045 6.54074 7.76371 6.54074 7.6107C6.54074 7.45769 6.60152 7.31095 6.70971 7.20275C6.81791 7.09456 6.96465 7.03377 7.11766 7.03377C7.42368 7.03377 7.71716 7.15534 7.93355 7.37173C8.14994 7.58812 8.2715 7.8816 8.2715 8.18762V11.0722C8.42451 11.0722 8.57126 11.133 8.67945 11.2412C8.78765 11.3494 8.84843 11.4961 8.84843 11.6492C8.84843 11.8022 8.78765 11.9489 8.67945 12.0571C8.57126 12.1653 8.42451 12.2261 8.2715 12.2261Z" fill="white" fill-opacity="0.2"/>
</svg>
